STARTFONT 2.1
FONT -FontForge-ITC Benguiat Gothic Std-Medium-R-Normal--14-100-100-100-P-72-ISO8859-1
SIZE 10 100 100
FONTBOUNDINGBOX 16 16 -2 -3
COMMENT "Generated by fontforge, http://fontforge.sourceforge.net"
COMMENT "Copyright 1990, 1995 , 2002Adobe Systems Incorporated. All Rights Reserved. ITC Benguiat Gothic is a registered trademark of International Typeface Corporation."
STARTPROPERTIES 40
FOUNDRY "FontForge"
FAMILY_NAME "ITC Benguiat Gothic Std"
WEIGHT_NAME "Medium"
SLANT "R"
SETWIDTH_NAME "Normal"
ADD_STYLE_NAME ""
PIXEL_SIZE 14
POINT_SIZE 100
RESOLUTION_X 100
RESOLUTION_Y 100
SPACING "P"
AVERAGE_WIDTH 72
CHARSET_REGISTRY "ISO8859"
CHARSET_ENCODING "1"
FONTNAME_REGISTRY ""
CHARSET_COLLECTIONS "ISOLatin1Encoding"
FONT_NAME "BenguiatGothicStd-Medium"
FACE_NAME "ITC Benguiat Gothic Std Medium"
COPYRIGHT "Copyright 1990, 1995 , 2002Adobe Systems Incorporated. All Rights Reserved. ITC Benguiat Gothic is a registered trademark of International Typeface Corporation."
FONT_VERSION "001.001"
FONT_ASCENT 10
FONT_DESCENT 4
UNDERLINE_POSITION -1
UNDERLINE_THICKNESS 1
X_HEIGHT 7
CAP_HEIGHT 9
RAW_ASCENT 691
RAW_DESCENT 309
NORM_SPACE 4
RELATIVE_WEIGHT 50
RELATIVE_SETWIDTH 50
SUPERSCRIPT_X 0
SUPERSCRIPT_Y 4
SUPERSCRIPT_SIZE 8
SUBSCRIPT_X 0
SUBSCRIPT_Y 1
SUBSCRIPT_SIZE 8
FIGURE_WIDTH 9
AVG_LOWERCASE_WIDTH 70
AVG_UPPERCASE_WIDTH 84
ENDPROPERTIES
CHARS 253
STARTCHAR space
ENCODING 32
SWIDTH 305 0
DWIDTH 4 0
BBX 1 1 0 0
BITMAP
00
ENDCHAR
STARTCHAR exclam
ENCODING 33
SWIDTH 278 0
DWIDTH 4 0
BBX 2 10 1 0
BITMAP
C0
C0
C0
C0
C0
C0
80
00
00
C0
ENDCHAR
STARTCHAR quotedbl
ENCODING 34
SWIDTH 333 0
DWIDTH 5 0
BBX 3 4 1 6
BITMAP
A0
A0
A0
A0
ENDCHAR
STARTCHAR numbersign
ENCODING 35
SWIDTH 611 0
DWIDTH 9 0
BBX 7 10 1 0
BITMAP
24
24
2C
FE
28
48
FC
48
48
48
ENDCHAR
STARTCHAR dollar
ENCODING 36
SWIDTH 611 0
DWIDTH 9 0
BBX 6 12 1 -1
BITMAP
20
20
F8
80
F0
3C
24
24
2C
F8
20
20
ENDCHAR
STARTCHAR percent
ENCODING 37
SWIDTH 833 0
DWIDTH 12 0
BBX 10 10 1 0
BITMAP
6200
9200
9600
9400
6C00
0800
0B80
1640
1640
2380
ENDCHAR
STARTCHAR ampersand
ENCODING 38
SWIDTH 778 0
DWIDTH 11 0
BBX 10 10 1 0
BITMAP
3800
6C00
4500
6D00
F900
9900
8500
8200
C780
7CC0
ENDCHAR
STARTCHAR quotesingle
ENCODING 39
SWIDTH 222 0
DWIDTH 3 0
BBX 1 4 1 6
BITMAP
80
80
80
80
ENDCHAR
STARTCHAR parenleft
ENCODING 40
SWIDTH 389 0
DWIDTH 5 0
BBX 4 13 1 -3
BITMAP
30
20
40
40
80
80
80
80
80
40
40
20
30
ENDCHAR
STARTCHAR parenright
ENCODING 41
SWIDTH 389 0
DWIDTH 5 0
BBX 3 13 1 -3
BITMAP
80
C0
40
20
20
20
20
20
20
20
60
40
80
ENDCHAR
STARTCHAR asterisk
ENCODING 42
SWIDTH 333 0
DWIDTH 5 0
BBX 4 4 0 6
BITMAP
20
F0
70
20
ENDCHAR
STARTCHAR plus
ENCODING 43
SWIDTH 600 0
DWIDTH 8 0
BBX 7 8 1 0
BITMAP
10
10
10
10
FE
10
10
10
ENDCHAR
STARTCHAR comma
ENCODING 44
SWIDTH 305 0
DWIDTH 4 0
BBX 2 4 1 -2
BITMAP
40
C0
80
80
ENDCHAR
STARTCHAR hyphen
ENCODING 45
SWIDTH 333 0
DWIDTH 5 0
BBX 3 1 1 3
BITMAP
E0
ENDCHAR
STARTCHAR period
ENCODING 46
SWIDTH 305 0
DWIDTH 4 0
BBX 2 1 1 0
BITMAP
C0
ENDCHAR
STARTCHAR slash
ENCODING 47
SWIDTH 278 0
DWIDTH 4 0
BBX 4 10 0 0
BITMAP
10
10
30
20
20
40
40
C0
80
80
ENDCHAR
STARTCHAR zero
ENCODING 48
SWIDTH 611 0
DWIDTH 9 0
BBX 7 10 1 0
BITMAP
38
4C
84
82
82
82
82
84
4C
38
ENDCHAR
STARTCHAR one
ENCODING 49
SWIDTH 611 0
DWIDTH 9 0
BBX 5 10 2 0
BITMAP
60
E0
20
20
20
20
20
20
20
F8
ENDCHAR
STARTCHAR two
ENCODING 50
SWIDTH 611 0
DWIDTH 9 0
BBX 7 10 1 0
BITMAP
F8
0C
04
04
18
30
60
80
80
FE
ENDCHAR
STARTCHAR three
ENCODING 51
SWIDTH 611 0
DWIDTH 9 0
BBX 7 10 1 0
BITMAP
FC
18
30
78
0C
04
06
04
0C
F8
ENDCHAR
STARTCHAR four
ENCODING 52
SWIDTH 611 0
DWIDTH 9 0
BBX 7 10 1 0
BITMAP
18
38
68
48
C8
88
88
FE
08
08
ENDCHAR
STARTCHAR five
ENCODING 53
SWIDTH 611 0
DWIDTH 9 0
BBX 7 10 1 0
BITMAP
FC
C0
C0
F8
0C
06
02
06
04
F8
ENDCHAR
STARTCHAR six
ENCODING 54
SWIDTH 611 0
DWIDTH 9 0
BBX 7 10 1 0
BITMAP
3E
C0
80
BC
C6
82
82
82
C4
38
ENDCHAR
STARTCHAR seven
ENCODING 55
SWIDTH 611 0
DWIDTH 9 0
BBX 6 10 1 0
BITMAP
FC
04
04
08
18
10
30
20
60
60
ENDCHAR
STARTCHAR eight
ENCODING 56
SWIDTH 611 0
DWIDTH 9 0
BBX 7 10 1 0
BITMAP
78
C4
84
C4
78
C4
82
82
C4
78
ENDCHAR
STARTCHAR nine
ENCODING 57
SWIDTH 611 0
DWIDTH 9 0
BBX 8 10 0 0
BITMAP
3C
66
43
C3
43
67
3D
03
06
7C
ENDCHAR
STARTCHAR colon
ENCODING 58
SWIDTH 305 0
DWIDTH 4 0
BBX 2 6 1 0
BITMAP
C0
00
00
00
00
C0
ENDCHAR
STARTCHAR semicolon
ENCODING 59
SWIDTH 305 0
DWIDTH 4 0
BBX 2 7 1 -1
BITMAP
40
00
00
00
C0
80
80
ENDCHAR
STARTCHAR less
ENCODING 60
SWIDTH 600 0
DWIDTH 8 0
BBX 7 8 1 0
BITMAP
02
0C
30
C0
C0
30
0C
02
ENDCHAR
STARTCHAR equal
ENCODING 61
SWIDTH 600 0
DWIDTH 8 0
BBX 7 3 1 2
BITMAP
FE
00
FE
ENDCHAR
STARTCHAR greater
ENCODING 62
SWIDTH 600 0
DWIDTH 8 0
BBX 7 8 1 0
BITMAP
80
E0
38
0E
0E
38
E0
80
ENDCHAR
STARTCHAR question
ENCODING 63
SWIDTH 500 0
DWIDTH 7 0
BBX 6 10 0 0
BITMAP
F8
04
04
04
18
30
20
20
20
20
ENDCHAR
STARTCHAR at
ENCODING 64
SWIDTH 800 0
DWIDTH 11 0
BBX 9 10 1 0
BITMAP
3E00
6180
9D80
B280
A280
A280
A480
FF00
6180
1E00
ENDCHAR
STARTCHAR A
ENCODING 65
SWIDTH 667 0
DWIDTH 9 0
BBX 9 10 0 0
BITMAP
0800
1400
3600
2200
3B00
6700
4300
4180
4180
C080
ENDCHAR
STARTCHAR B
ENCODING 66
SWIDTH 611 0
DWIDTH 9 0
BBX 7 10 1 0
BITMAP
FC
86
F4
9C
84
82
82
82
86
FC
ENDCHAR
STARTCHAR C
ENCODING 67
SWIDTH 611 0
DWIDTH 9 0
BBX 7 10 1 0
BITMAP
7E
C0
80
80
80
80
C0
40
30
1E
ENDCHAR
STARTCHAR D
ENCODING 68
SWIDTH 667 0
DWIDTH 9 0
BBX 8 10 1 0
BITMAP
F0
9C
86
82
83
83
83
83
86
FC
ENDCHAR
STARTCHAR E
ENCODING 69
SWIDTH 556 0
DWIDTH 8 0
BBX 6 10 1 0
BITMAP
FC
80
FC
80
80
80
80
80
80
FC
ENDCHAR
STARTCHAR F
ENCODING 70
SWIDTH 500 0
DWIDTH 7 0
BBX 6 10 1 0
BITMAP
FC
80
FC
80
80
80
80
80
80
80
ENDCHAR
STARTCHAR G
ENCODING 71
SWIDTH 667 0
DWIDTH 9 0
BBX 9 10 0 0
BITMAP
3F00
6000
4F80
C180
4180
4180
6180
2180
1980
0F80
ENDCHAR
STARTCHAR H
ENCODING 72
SWIDTH 611 0
DWIDTH 9 0
BBX 6 10 1 0
BITMAP
84
84
FC
84
84
84
84
84
84
84
ENDCHAR
STARTCHAR I
ENCODING 73
SWIDTH 222 0
DWIDTH 3 0
BBX 1 10 1 0
BITMAP
80
80
80
80
80
80
80
80
80
80
ENDCHAR
STARTCHAR J
ENCODING 74
SWIDTH 444 0
DWIDTH 6 0
BBX 5 10 0 0
BITMAP
08
08
08
08
08
08
08
08
98
F0
ENDCHAR
STARTCHAR K
ENCODING 75
SWIDTH 611 0
DWIDTH 9 0
BBX 7 10 1 0
BITMAP
86
84
8C
F8
98
8C
86
82
82
82
ENDCHAR
STARTCHAR L
ENCODING 76
SWIDTH 444 0
DWIDTH 6 0
BBX 5 10 1 0
BITMAP
80
80
80
80
80
80
80
80
80
F8
ENDCHAR
STARTCHAR M
ENCODING 77
SWIDTH 722 0
DWIDTH 10 0
BBX 8 10 1 0
BITMAP
42
67
E5
BD
99
81
81
81
81
81
ENDCHAR
STARTCHAR N
ENCODING 78
SWIDTH 611 0
DWIDTH 9 0
BBX 7 10 1 0
BITMAP
C6
C6
B6
9E
86
86
86
86
86
86
ENDCHAR
STARTCHAR O
ENCODING 79
SWIDTH 722 0
DWIDTH 10 0
BBX 9 10 1 0
BITMAP
3C00
6600
C300
8100
8180
8180
8100
C300
6600
3C00
ENDCHAR
STARTCHAR P
ENCODING 80
SWIDTH 556 0
DWIDTH 8 0
BBX 7 10 1 0
BITMAP
FC
86
86
9C
F0
C0
80
80
80
80
ENDCHAR
STARTCHAR Q
ENCODING 81
SWIDTH 722 0
DWIDTH 10 0
BBX 9 12 1 -2
BITMAP
3C00
6600
C300
8100
8180
8100
B100
CB00
6E00
3C00
0600
0380
ENDCHAR
STARTCHAR R
ENCODING 82
SWIDTH 667 0
DWIDTH 9 0
BBX 8 10 1 0
BITMAP
FE
82
F6
BC
84
86
82
83
81
81
ENDCHAR
STARTCHAR S
ENCODING 83
SWIDTH 611 0
DWIDTH 9 0
BBX 8 10 0 0
BITMAP
7E
40
40
7E
07
01
01
01
02
FC
ENDCHAR
STARTCHAR T
ENCODING 84
SWIDTH 500 0
DWIDTH 7 0
BBX 7 10 0 0
BITMAP
FE
10
10
10
10
10
10
10
10
10
ENDCHAR
STARTCHAR U
ENCODING 85
SWIDTH 611 0
DWIDTH 9 0
BBX 7 10 1 0
BITMAP
84
84
86
86
82
82
82
82
CC
78
ENDCHAR
STARTCHAR V
ENCODING 86
SWIDTH 611 0
DWIDTH 9 0
BBX 8 10 0 0
BITMAP
C1
C1
41
43
42
22
26
34
1C
08
ENDCHAR
STARTCHAR W
ENCODING 87
SWIDTH 833 0
DWIDTH 12 0
BBX 10 10 1 0
BITMAP
8840
8C40
8C40
8C40
8C40
9CC0
D480
5280
7380
2100
ENDCHAR
STARTCHAR X
ENCODING 88
SWIDTH 611 0
DWIDTH 9 0
BBX 8 10 0 0
BITMAP
43
62
34
18
3C
26
62
43
C1
C1
ENDCHAR
STARTCHAR Y
ENCODING 89
SWIDTH 556 0
DWIDTH 8 0
BBX 7 10 0 0
BITMAP
C2
42
46
24
38
18
18
18
18
10
ENDCHAR
STARTCHAR Z
ENCODING 90
SWIDTH 500 0
DWIDTH 7 0
BBX 7 10 0 0
BITMAP
7C
04
04
0C
18
30
60
40
C0
FE
ENDCHAR
STARTCHAR bracketleft
ENCODING 91
SWIDTH 389 0
DWIDTH 5 0
BBX 3 13 1 -3
BITMAP
E0
80
80
80
80
80
80
80
80
80
80
80
E0
ENDCHAR
STARTCHAR backslash
ENCODING 92
SWIDTH 278 0
DWIDTH 4 0
BBX 4 10 0 0
BITMAP
80
80
C0
40
40
20
20
30
10
10
ENDCHAR
STARTCHAR bracketright
ENCODING 93
SWIDTH 389 0
DWIDTH 5 0
BBX 3 13 1 -3
BITMAP
E0
20
20
20
20
20
20
20
20
20
20
20
E0
ENDCHAR
STARTCHAR asciicircum
ENCODING 94
SWIDTH 600 0
DWIDTH 8 0
BBX 6 7 1 3
BITMAP
30
30
28
48
4C
C4
84
ENDCHAR
STARTCHAR underscore
ENCODING 95
SWIDTH 500 0
DWIDTH 7 0
BBX 7 1 0 -2
BITMAP
FE
ENDCHAR
STARTCHAR grave
ENCODING 96
SWIDTH 222 0
DWIDTH 3 0
BBX 3 2 0 8
BITMAP
C0
60
ENDCHAR
STARTCHAR a
ENCODING 97
SWIDTH 500 0
DWIDTH 7 0
BBX 6 8 0 0
BITMAP
78
04
04
3C
44
84
C4
7C
ENDCHAR
STARTCHAR b
ENCODING 98
SWIDTH 556 0
DWIDTH 8 0
BBX 6 10 1 0
BITMAP
80
80
F0
98
8C
84
84
84
8C
F8
ENDCHAR
STARTCHAR c
ENCODING 99
SWIDTH 500 0
DWIDTH 7 0
BBX 6 8 1 0
BITMAP
7C
C0
80
80
80
80
40
3C
ENDCHAR
STARTCHAR d
ENCODING 100
SWIDTH 556 0
DWIDTH 8 0
BBX 6 10 1 0
BITMAP
04
04
3C
64
84
84
84
84
C4
7C
ENDCHAR
STARTCHAR e
ENCODING 101
SWIDTH 556 0
DWIDTH 8 0
BBX 6 8 1 0
BITMAP
78
CC
84
FC
80
80
C0
7C
ENDCHAR
STARTCHAR f
ENCODING 102
SWIDTH 333 0
DWIDTH 5 0
BBX 5 10 0 0
BITMAP
38
20
F8
20
20
20
20
20
20
20
ENDCHAR
STARTCHAR g
ENCODING 103
SWIDTH 556 0
DWIDTH 8 0
BBX 8 11 0 -3
BITMAP
1E
66
46
46
46
46
46
3E
01
C3
7C
ENDCHAR
STARTCHAR h
ENCODING 104
SWIDTH 556 0
DWIDTH 8 0
BBX 6 10 1 0
BITMAP
80
80
B8
CC
84
84
84
84
84
84
ENDCHAR
STARTCHAR i
ENCODING 105
SWIDTH 222 0
DWIDTH 3 0
BBX 1 11 1 0
BITMAP
80
80
00
80
80
80
80
80
80
80
80
ENDCHAR
STARTCHAR j
ENCODING 106
SWIDTH 222 0
DWIDTH 3 0
BBX 4 14 -2 -3
BITMAP
10
10
00
10
10
10
10
10
10
10
10
10
30
E0
ENDCHAR
STARTCHAR k
ENCODING 107
SWIDTH 500 0
DWIDTH 7 0
BBX 6 10 1 0
BITMAP
80
80
88
98
F0
B0
88
8C
8C
84
ENDCHAR
STARTCHAR l
ENCODING 108
SWIDTH 222 0
DWIDTH 3 0
BBX 1 10 1 0
BITMAP
80
80
80
80
80
80
80
80
80
80
ENDCHAR
STARTCHAR m
ENCODING 109
SWIDTH 889 0
DWIDTH 12 0
BBX 11 8 1 0
BITMAP
BBC0
CE40
8460
8460
8460
8460
8460
8460
ENDCHAR
STARTCHAR n
ENCODING 110
SWIDTH 556 0
DWIDTH 8 0
BBX 6 8 1 0
BITMAP
B8
CC
84
84
84
84
84
84
ENDCHAR
STARTCHAR o
ENCODING 111
SWIDTH 556 0
DWIDTH 8 0
BBX 6 8 1 0
BITMAP
78
CC
84
84
84
84
CC
78
ENDCHAR
STARTCHAR p
ENCODING 112
SWIDTH 556 0
DWIDTH 8 0
BBX 6 11 1 -3
BITMAP
F0
98
8C
84
84
84
8C
F8
80
80
80
ENDCHAR
STARTCHAR q
ENCODING 113
SWIDTH 556 0
DWIDTH 8 0
BBX 6 11 1 -3
BITMAP
3C
44
84
84
84
84
C4
7C
04
04
04
ENDCHAR
STARTCHAR r
ENCODING 114
SWIDTH 333 0
DWIDTH 5 0
BBX 4 8 1 0
BITMAP
B0
C0
80
80
80
80
80
80
ENDCHAR
STARTCHAR s
ENCODING 115
SWIDTH 500 0
DWIDTH 7 0
BBX 7 8 0 0
BITMAP
7C
40
70
3C
06
06
04
FC
ENDCHAR
STARTCHAR t
ENCODING 116
SWIDTH 333 0
DWIDTH 5 0
BBX 4 10 1 0
BITMAP
40
C0
E0
C0
C0
C0
C0
C0
40
70
ENDCHAR
STARTCHAR u
ENCODING 117
SWIDTH 556 0
DWIDTH 8 0
BBX 6 8 1 0
BITMAP
84
84
84
84
84
8C
CC
74
ENDCHAR
STARTCHAR v
ENCODING 118
SWIDTH 500 0
DWIDTH 7 0
BBX 7 8 0 0
BITMAP
82
C6
44
44
44
28
38
10
ENDCHAR
STARTCHAR w
ENCODING 119
SWIDTH 722 0
DWIDTH 10 0
BBX 10 8 0 0
BITMAP
4440
CCC0
CCC0
4C80
4C80
5280
7380
3100
ENDCHAR
STARTCHAR x
ENCODING 120
SWIDTH 500 0
DWIDTH 7 0
BBX 7 8 0 0
BITMAP
44
44
44
6C
38
28
44
C6
ENDCHAR
STARTCHAR y
ENCODING 121
SWIDTH 500 0
DWIDTH 7 0
BBX 7 11 0 -3
BITMAP
C2
C6
46
44
64
2C
38
10
30
20
60
ENDCHAR
STARTCHAR z
ENCODING 122
SWIDTH 444 0
DWIDTH 6 0
BBX 6 8 0 0
BITMAP
7C
0C
08
10
20
40
C0
FC
ENDCHAR
STARTCHAR braceleft
ENCODING 123
SWIDTH 389 0
DWIDTH 5 0
BBX 4 13 1 -3
BITMAP
70
40
40
40
40
C0
80
40
40
40
40
40
70
ENDCHAR
STARTCHAR bar
ENCODING 124
SWIDTH 222 0
DWIDTH 3 0
BBX 1 14 1 -3
BITMAP
80
80
80
80
80
80
80
80
80
80
80
80
80
80
ENDCHAR
STARTCHAR braceright
ENCODING 125
SWIDTH 389 0
DWIDTH 5 0
BBX 4 13 1 -3
BITMAP
C0
60
60
60
60
20
10
20
60
60
60
60
C0
ENDCHAR
STARTCHAR asciitilde
ENCODING 126
SWIDTH 600 0
DWIDTH 8 0
BBX 6 2 1 3
BITMAP
E4
9C
ENDCHAR
STARTCHAR uni00A0
ENCODING 160
SWIDTH 305 0
DWIDTH 4 0
BBX 1 1 0 0
BITMAP
00
ENDCHAR
STARTCHAR exclamdown
ENCODING 161
SWIDTH 278 0
DWIDTH 4 0
BBX 2 10 1 -3
BITMAP
C0
00
00
80
C0
C0
C0
C0
C0
C0
ENDCHAR
STARTCHAR cent
ENCODING 162
SWIDTH 611 0
DWIDTH 9 0
BBX 6 10 1 0
BITMAP
10
10
7C
D0
D0
D0
70
3C
10
10
ENDCHAR
STARTCHAR sterling
ENCODING 163
SWIDTH 611 0
DWIDTH 9 0
BBX 8 10 0 0
BITMAP
0F
10
10
10
7E
10
10
10
30
FE
ENDCHAR
STARTCHAR currency
ENCODING 164
SWIDTH 611 0
DWIDTH 9 0
BBX 7 7 1 1
BITMAP
FE
C4
86
82
86
C4
FA
ENDCHAR
STARTCHAR yen
ENCODING 165
SWIDTH 611 0
DWIDTH 9 0
BBX 7 10 1 0
BITMAP
82
86
C4
EE
30
FE
10
10
10
10
ENDCHAR
STARTCHAR brokenbar
ENCODING 166
SWIDTH 222 0
DWIDTH 3 0
BBX 1 12 1 -2
BITMAP
80
80
80
80
80
00
00
80
80
80
80
80
ENDCHAR
STARTCHAR section
ENCODING 167
SWIDTH 500 0
DWIDTH 7 0
BBX 5 10 1 0
BITMAP
F8
80
C0
F8
88
F8
18
08
08
F0
ENDCHAR
STARTCHAR dieresis
ENCODING 168
SWIDTH 222 0
DWIDTH 3 0
BBX 5 1 -1 9
BITMAP
D8
ENDCHAR
STARTCHAR copyright
ENCODING 169
SWIDTH 800 0
DWIDTH 11 0
BBX 9 10 1 0
BITMAP
1E00
6100
DC80
A280
A080
A080
A280
9C80
6100
3E00
ENDCHAR
STARTCHAR ordfeminine
ENCODING 170
SWIDTH 300 0
DWIDTH 4 0
BBX 4 5 0 5
BITMAP
F0
30
D0
90
F0
ENDCHAR
STARTCHAR guillemotleft
ENCODING 171
SWIDTH 444 0
DWIDTH 6 0
BBX 4 5 1 1
BITMAP
D0
B0
A0
90
50
ENDCHAR
STARTCHAR logicalnot
ENCODING 172
SWIDTH 600 0
DWIDTH 8 0
BBX 7 4 1 1
BITMAP
FE
02
02
02
ENDCHAR
STARTCHAR uni00AD
ENCODING 173
SWIDTH 333 0
DWIDTH 5 0
BBX 3 1 1 3
BITMAP
E0
ENDCHAR
STARTCHAR registered
ENCODING 174
SWIDTH 800 0
DWIDTH 11 0
BBX 9 10 1 0
BITMAP
3E00
4100
9E80
9280
9E80
9480
9480
D280
6100
1E00
ENDCHAR
STARTCHAR macron
ENCODING 175
SWIDTH 222 0
DWIDTH 3 0
BBX 3 1 0 9
BITMAP
E0
ENDCHAR
STARTCHAR degree
ENCODING 176
SWIDTH 400 0
DWIDTH 6 0
BBX 4 4 1 6
BITMAP
E0
90
90
E0
ENDCHAR
STARTCHAR plusminus
ENCODING 177
SWIDTH 600 0
DWIDTH 8 0
BBX 7 8 1 0
BITMAP
10
10
FE
10
10
00
00
FE
ENDCHAR
STARTCHAR twosuperior
ENCODING 178
SWIDTH 366 0
DWIDTH 5 0
BBX 5 7 0 3
BITMAP
F0
10
10
30
40
80
F8
ENDCHAR
STARTCHAR threesuperior
ENCODING 179
SWIDTH 366 0
DWIDTH 5 0
BBX 5 7 0 3
BITMAP
F0
20
70
08
08
08
F0
ENDCHAR
STARTCHAR acute
ENCODING 180
SWIDTH 222 0
DWIDTH 3 0
BBX 3 2 0 8
BITMAP
20
C0
ENDCHAR
STARTCHAR mu
ENCODING 181
SWIDTH 556 0
DWIDTH 8 0
BBX 6 11 1 -3
BITMAP
84
84
84
84
84
8C
CC
F4
80
80
80
ENDCHAR
STARTCHAR paragraph
ENCODING 182
SWIDTH 600 0
DWIDTH 8 0
BBX 6 10 1 0
BITMAP
7C
F4
F4
F4
F4
14
14
14
14
14
ENDCHAR
STARTCHAR periodcentered
ENCODING 183
SWIDTH 305 0
DWIDTH 4 0
BBX 2 1 1 3
BITMAP
C0
ENDCHAR
STARTCHAR cedilla
ENCODING 184
SWIDTH 222 0
DWIDTH 3 0
BBX 3 3 0 -3
BITMAP
40
60
E0
ENDCHAR
STARTCHAR onesuperior
ENCODING 185
SWIDTH 366 0
DWIDTH 5 0
BBX 3 7 1 3
BITMAP
C0
40
40
40
40
40
E0
ENDCHAR
STARTCHAR ordmasculine
ENCODING 186
SWIDTH 334 0
DWIDTH 5 0
BBX 5 5 0 5
BITMAP
70
90
88
90
70
ENDCHAR
STARTCHAR guillemotright
ENCODING 187
SWIDTH 444 0
DWIDTH 6 0
BBX 5 5 1 1
BITMAP
90
50
58
D0
B0
ENDCHAR
STARTCHAR onequarter
ENCODING 188
SWIDTH 916 0
DWIDTH 13 0
BBX 11 10 1 0
BITMAP
C080
4100
4100
4200
4400
44C0
E940
1240
13E0
2040
ENDCHAR
STARTCHAR onehalf
ENCODING 189
SWIDTH 916 0
DWIDTH 13 0
BBX 11 10 1 0
BITMAP
C100
4100
4200
4600
45C0
4860
E820
1040
2180
21E0
ENDCHAR
STARTCHAR threequarters
ENCODING 190
SWIDTH 916 0
DWIDTH 13 0
BBX 11 10 1 0
BITMAP
E080
4180
E100
1200
1600
14C0
E9C0
1940
13E0
2040
ENDCHAR
STARTCHAR questiondown
ENCODING 191
SWIDTH 500 0
DWIDTH 7 0
BBX 6 10 1 -3
BITMAP
10
10
10
10
30
60
80
80
80
7C
ENDCHAR
STARTCHAR Agrave
ENCODING 192
SWIDTH 667 0
DWIDTH 9 0
BBX 9 12 0 0
BITMAP
1C00
0000
0800
1400
3600
2200
3B00
6700
4300
4180
4180
C080
ENDCHAR
STARTCHAR Aacute
ENCODING 193
SWIDTH 667 0
DWIDTH 9 0
BBX 9 12 0 0
BITMAP
0E00
1000
0800
1400
3600
2200
3B00
6700
4300
4180
4180
C080
ENDCHAR
STARTCHAR Acircumflex
ENCODING 194
SWIDTH 667 0
DWIDTH 9 0
BBX 9 13 0 0
BITMAP
0C00
1400
0000
0800
1400
3600
2200
3B00
6700
4300
4180
4180
C080
ENDCHAR
STARTCHAR Atilde
ENCODING 195
SWIDTH 667 0
DWIDTH 9 0
BBX 9 12 0 0
BITMAP
1E00
2000
0800
1400
3600
2200
3B00
6700
4300
4180
4180
C080
ENDCHAR
STARTCHAR Adieresis
ENCODING 196
SWIDTH 667 0
DWIDTH 9 0
BBX 9 12 0 0
BITMAP
3600
0000
0800
1400
3600
2200
3B00
6700
4300
4180
4180
C080
ENDCHAR
STARTCHAR Aring
ENCODING 197
SWIDTH 667 0
DWIDTH 9 0
BBX 9 13 0 0
BITMAP
0C00
1400
0800
0800
1400
3600
2200
3B00
6700
4300
4180
4180
C080
ENDCHAR
STARTCHAR AE
ENCODING 198
SWIDTH 944 0
DWIDTH 13 0
BBX 13 10 0 0
BITMAP
03F8
0D00
19F0
1700
3900
7100
6100
4100
C100
81F8
ENDCHAR
STARTCHAR Ccedilla
ENCODING 199
SWIDTH 611 0
DWIDTH 9 0
BBX 7 13 1 -3
BITMAP
7E
C0
80
80
80
80
C0
40
30
1E
10
0C
1C
ENDCHAR
STARTCHAR Egrave
ENCODING 200
SWIDTH 556 0
DWIDTH 8 0
BBX 6 12 1 0
BITMAP
70
08
FC
80
FC
80
80
80
80
80
80
FC
ENDCHAR
STARTCHAR Eacute
ENCODING 201
SWIDTH 556 0
DWIDTH 8 0
BBX 6 12 1 0
BITMAP
38
40
FC
80
FC
80
80
80
80
80
80
FC
ENDCHAR
STARTCHAR Ecircumflex
ENCODING 202
SWIDTH 556 0
DWIDTH 8 0
BBX 6 13 1 0
BITMAP
30
48
00
FC
80
FC
80
80
80
80
80
80
FC
ENDCHAR
STARTCHAR Edieresis
ENCODING 203
SWIDTH 556 0
DWIDTH 8 0
BBX 6 13 1 0
BITMAP
48
48
00
FC
80
FC
80
80
80
80
80
80
FC
ENDCHAR
STARTCHAR Igrave
ENCODING 204
SWIDTH 222 0
DWIDTH 3 0
BBX 3 12 0 0
BITMAP
E0
00
40
40
40
40
40
40
40
40
40
40
ENDCHAR
STARTCHAR Iacute
ENCODING 205
SWIDTH 222 0
DWIDTH 3 0
BBX 3 12 0 0
BITMAP
E0
00
40
40
40
40
40
40
40
40
40
40
ENDCHAR
STARTCHAR Icircumflex
ENCODING 206
SWIDTH 222 0
DWIDTH 3 0
BBX 3 13 0 0
BITMAP
40
A0
00
40
40
40
40
40
40
40
40
40
40
ENDCHAR
STARTCHAR Idieresis
ENCODING 207
SWIDTH 222 0
DWIDTH 3 0
BBX 5 12 -1 0
BITMAP
D8
00
20
20
20
20
20
20
20
20
20
20
ENDCHAR
STARTCHAR Eth
ENCODING 208
SWIDTH 667 0
DWIDTH 9 0
BBX 9 10 0 0
BITMAP
7800
4E00
4300
4100
F980
4180
4180
4180
4300
7E00
ENDCHAR
STARTCHAR Ntilde
ENCODING 209
SWIDTH 611 0
DWIDTH 9 0
BBX 7 13 1 0
BITMAP
24
78
00
C6
C6
B6
9E
86
86
86
86
86
86
ENDCHAR
STARTCHAR Ograve
ENCODING 210
SWIDTH 722 0
DWIDTH 10 0
BBX 9 12 1 0
BITMAP
3800
0400
3C00
6600
C300
8100
8180
8180
8100
C300
6600
3C00
ENDCHAR
STARTCHAR Oacute
ENCODING 211
SWIDTH 722 0
DWIDTH 10 0
BBX 9 12 1 0
BITMAP
1C00
2000
3C00
6600
C300
8100
8180
8180
8100
C300
6600
3C00
ENDCHAR
STARTCHAR Ocircumflex
ENCODING 212
SWIDTH 722 0
DWIDTH 10 0
BBX 9 13 1 0
BITMAP
1800
3400
0000
3C00
6600
C300
8100
8180
8180
8100
C300
6600
3C00
ENDCHAR
STARTCHAR Otilde
ENCODING 213
SWIDTH 722 0
DWIDTH 10 0
BBX 9 12 1 0
BITMAP
3C00
0000
3C00
6600
C300
8100
8180
8180
8100
C300
6600
3C00
ENDCHAR
STARTCHAR Odieresis
ENCODING 214
SWIDTH 722 0
DWIDTH 10 0
BBX 9 13 1 0
BITMAP
2400
2400
0000
3C00
6600
C300
8100
8180
8180
8100
C300
6600
3C00
ENDCHAR
STARTCHAR multiply
ENCODING 215
SWIDTH 600 0
DWIDTH 8 0
BBX 6 8 1 0
BITMAP
84
C4
68
30
30
68
C4
84
ENDCHAR
STARTCHAR Oslash
ENCODING 216
SWIDTH 722 0
DWIDTH 10 0
BBX 9 12 1 -1
BITMAP
0200
3E00
6600
C700
8900
8980
9180
9100
E300
6600
7C00
4000
ENDCHAR
STARTCHAR Ugrave
ENCODING 217
SWIDTH 611 0
DWIDTH 9 0
BBX 7 12 1 0
BITMAP
70
08
84
84
86
86
82
82
82
82
CC
78
ENDCHAR
STARTCHAR Uacute
ENCODING 218
SWIDTH 611 0
DWIDTH 9 0
BBX 7 12 1 0
BITMAP
38
00
84
84
86
86
82
82
82
82
CC
78
ENDCHAR
STARTCHAR Ucircumflex
ENCODING 219
SWIDTH 611 0
DWIDTH 9 0
BBX 7 13 1 0
BITMAP
30
28
00
84
84
86
86
82
82
82
82
CC
78
ENDCHAR
STARTCHAR Udieresis
ENCODING 220
SWIDTH 611 0
DWIDTH 9 0
BBX 7 12 1 0
BITMAP
4C
00
84
84
86
86
82
82
82
82
CC
78
ENDCHAR
STARTCHAR Yacute
ENCODING 221
SWIDTH 556 0
DWIDTH 8 0
BBX 7 12 0 0
BITMAP
1C
20
C2
42
46
24
38
18
18
18
18
10
ENDCHAR
STARTCHAR Thorn
ENCODING 222
SWIDTH 556 0
DWIDTH 8 0
BBX 7 10 1 0
BITMAP
80
80
FC
86
86
9C
F0
80
80
80
ENDCHAR
STARTCHAR germandbls
ENCODING 223
SWIDTH 556 0
DWIDTH 8 0
BBX 7 10 0 0
BITMAP
38
44
D8
50
58
4E
42
42
42
7C
ENDCHAR
STARTCHAR agrave
ENCODING 224
SWIDTH 500 0
DWIDTH 7 0
BBX 6 11 0 0
BITMAP
20
38
00
78
04
04
3C
44
84
C4
7C
ENDCHAR
STARTCHAR aacute
ENCODING 225
SWIDTH 500 0
DWIDTH 7 0
BBX 6 11 0 0
BITMAP
08
30
00
78
04
04
3C
44
84
C4
7C
ENDCHAR
STARTCHAR acircumflex
ENCODING 226
SWIDTH 500 0
DWIDTH 7 0
BBX 6 11 0 0
BITMAP
10
28
00
78
04
04
3C
44
84
C4
7C
ENDCHAR
STARTCHAR atilde
ENCODING 227
SWIDTH 500 0
DWIDTH 7 0
BBX 6 11 0 0
BITMAP
64
58
00
78
04
04
3C
44
84
C4
7C
ENDCHAR
STARTCHAR adieresis
ENCODING 228
SWIDTH 500 0
DWIDTH 7 0
BBX 6 10 0 0
BITMAP
6C
00
78
04
04
3C
44
84
C4
7C
ENDCHAR
STARTCHAR aring
ENCODING 229
SWIDTH 500 0
DWIDTH 7 0
BBX 6 12 0 0
BITMAP
10
28
38
00
78
04
04
3C
44
84
C4
7C
ENDCHAR
STARTCHAR ae
ENCODING 230
SWIDTH 833 0
DWIDTH 12 0
BBX 11 8 0 0
BITMAP
7BC0
0660
0420
3FE0
4400
C400
C600
7BE0
ENDCHAR
STARTCHAR ccedilla
ENCODING 231
SWIDTH 500 0
DWIDTH 7 0
BBX 6 11 1 -3
BITMAP
7C
C0
80
80
80
80
40
3C
20
18
38
ENDCHAR
STARTCHAR egrave
ENCODING 232
SWIDTH 556 0
DWIDTH 8 0
BBX 6 11 1 0
BITMAP
40
38
00
78
CC
84
FC
80
80
C0
7C
ENDCHAR
STARTCHAR eacute
ENCODING 233
SWIDTH 556 0
DWIDTH 8 0
BBX 6 11 1 0
BITMAP
08
70
00
78
CC
84
FC
80
80
C0
7C
ENDCHAR
STARTCHAR ecircumflex
ENCODING 234
SWIDTH 556 0
DWIDTH 8 0
BBX 6 11 1 0
BITMAP
30
48
00
78
CC
84
FC
80
80
C0
7C
ENDCHAR
STARTCHAR edieresis
ENCODING 235
SWIDTH 556 0
DWIDTH 8 0
BBX 6 10 1 0
BITMAP
48
48
78
CC
84
FC
80
80
C0
7C
ENDCHAR
STARTCHAR igrave
ENCODING 236
SWIDTH 222 0
DWIDTH 3 0
BBX 3 11 0 0
BITMAP
80
E0
00
40
40
40
40
40
40
40
40
ENDCHAR
STARTCHAR iacute
ENCODING 237
SWIDTH 222 0
DWIDTH 3 0
BBX 3 11 0 0
BITMAP
20
E0
00
40
40
40
40
40
40
40
40
ENDCHAR
STARTCHAR icircumflex
ENCODING 238
SWIDTH 222 0
DWIDTH 3 0
BBX 3 11 0 0
BITMAP
40
A0
00
40
40
40
40
40
40
40
40
ENDCHAR
STARTCHAR idieresis
ENCODING 239
SWIDTH 222 0
DWIDTH 3 0
BBX 5 10 -1 0
BITMAP
D8
00
20
20
20
20
20
20
20
20
ENDCHAR
STARTCHAR eth
ENCODING 240
SWIDTH 556 0
DWIDTH 8 0
BBX 6 10 1 0
BITMAP
78
78
08
7C
CC
84
84
84
CC
78
ENDCHAR
STARTCHAR ntilde
ENCODING 241
SWIDTH 556 0
DWIDTH 8 0
BBX 6 11 1 0
BITMAP
40
B8
00
B8
CC
84
84
84
84
84
84
ENDCHAR
STARTCHAR ograve
ENCODING 242
SWIDTH 556 0
DWIDTH 8 0
BBX 6 11 1 0
BITMAP
40
38
00
78
CC
84
84
84
84
CC
78
ENDCHAR
STARTCHAR oacute
ENCODING 243
SWIDTH 556 0
DWIDTH 8 0
BBX 6 11 1 0
BITMAP
18
70
00
78
CC
84
84
84
84
CC
78
ENDCHAR
STARTCHAR ocircumflex
ENCODING 244
SWIDTH 556 0
DWIDTH 8 0
BBX 6 11 1 0
BITMAP
30
58
00
78
CC
84
84
84
84
CC
78
ENDCHAR
STARTCHAR otilde
ENCODING 245
SWIDTH 556 0
DWIDTH 8 0
BBX 6 11 1 0
BITMAP
40
B8
00
78
CC
84
84
84
84
CC
78
ENDCHAR
STARTCHAR odieresis
ENCODING 246
SWIDTH 556 0
DWIDTH 8 0
BBX 6 10 1 0
BITMAP
48
48
78
CC
84
84
84
84
CC
78
ENDCHAR
STARTCHAR divide
ENCODING 247
SWIDTH 600 0
DWIDTH 8 0
BBX 7 7 1 0
BITMAP
30
30
00
FE
00
30
30
ENDCHAR
STARTCHAR oslash
ENCODING 248
SWIDTH 556 0
DWIDTH 8 0
BBX 6 10 1 -1
BITMAP
08
78
DC
94
94
A4
A4
CC
78
80
ENDCHAR
STARTCHAR ugrave
ENCODING 249
SWIDTH 556 0
DWIDTH 8 0
BBX 6 11 1 0
BITMAP
40
38
00
84
84
84
84
84
8C
CC
74
ENDCHAR
STARTCHAR uacute
ENCODING 250
SWIDTH 556 0
DWIDTH 8 0
BBX 6 11 1 0
BITMAP
18
70
00
84
84
84
84
84
8C
CC
74
ENDCHAR
STARTCHAR ucircumflex
ENCODING 251
SWIDTH 556 0
DWIDTH 8 0
BBX 6 11 1 0
BITMAP
30
58
00
84
84
84
84
84
8C
CC
74
ENDCHAR
STARTCHAR udieresis
ENCODING 252
SWIDTH 556 0
DWIDTH 8 0
BBX 6 10 1 0
BITMAP
48
48
84
84
84
84
84
8C
CC
74
ENDCHAR
STARTCHAR yacute
ENCODING 253
SWIDTH 500 0
DWIDTH 7 0
BBX 7 14 0 -3
BITMAP
08
38
00
C2
C6
46
44
64
2C
38
10
30
20
60
ENDCHAR
STARTCHAR thorn
ENCODING 254
SWIDTH 556 0
DWIDTH 8 0
BBX 6 13 1 -3
BITMAP
80
80
F0
98
8C
84
84
84
8C
F8
80
80
80
ENDCHAR
STARTCHAR ydieresis
ENCODING 255
SWIDTH 500 0
DWIDTH 7 0
BBX 7 13 0 -3
BITMAP
6C
00
C2
C6
46
44
64
2C
38
10
30
20
60
ENDCHAR
STARTCHAR .notdef
ENCODING -1
SWIDTH 500 0
DWIDTH 7 0
BBX 7 10 0 0
BITMAP
FE
82
C6
AA
B2
92
AA
CA
C6
FE
ENDCHAR
STARTCHAR quoteright
ENCODING -1
SWIDTH 222 0
DWIDTH 3 0
BBX 3 4 0 6
BITMAP
60
40
40
80
ENDCHAR
STARTCHAR quoteleft
ENCODING -1
SWIDTH 222 0
DWIDTH 3 0
BBX 2 3 0 7
BITMAP
C0
40
40
ENDCHAR
STARTCHAR fraction
ENCODING -1
SWIDTH 167 0
DWIDTH 2 0
BBX 7 10 -2 0
BITMAP
02
04
08
08
10
20
20
40
80
80
ENDCHAR
STARTCHAR florin
ENCODING -1
SWIDTH 611 0
DWIDTH 9 0
BBX 8 13 0 -3
BITMAP
07
04
08
08
3E
08
08
18
10
10
10
30
E0
ENDCHAR
STARTCHAR quotedblleft
ENCODING -1
SWIDTH 389 0
DWIDTH 5 0
BBX 5 4 0 6
BITMAP
D0
50
58
08
ENDCHAR
STARTCHAR guilsinglleft
ENCODING -1
SWIDTH 278 0
DWIDTH 4 0
BBX 2 5 1 1
BITMAP
40
80
80
C0
40
ENDCHAR
STARTCHAR guilsinglright
ENCODING -1
SWIDTH 278 0
DWIDTH 4 0
BBX 2 5 1 1
BITMAP
80
C0
40
80
80
ENDCHAR
STARTCHAR fi
ENCODING -1
SWIDTH 500 0
DWIDTH 7 0
BBX 6 10 0 0
BITMAP
3C
44
FC
44
44
44
44
44
44
44
ENDCHAR
STARTCHAR fl
ENCODING -1
SWIDTH 500 0
DWIDTH 7 0
BBX 6 10 0 0
BITMAP
3C
44
F4
44
44
44
44
44
44
44
ENDCHAR
STARTCHAR endash
ENCODING -1
SWIDTH 500 0
DWIDTH 7 0
BBX 7 1 0 3
BITMAP
FE
ENDCHAR
STARTCHAR dagger
ENCODING -1
SWIDTH 389 0
DWIDTH 5 0
BBX 4 10 1 0
BITMAP
40
40
40
F0
40
40
40
40
40
40
ENDCHAR
STARTCHAR daggerdbl
ENCODING -1
SWIDTH 389 0
DWIDTH 5 0
BBX 4 10 1 0
BITMAP
40
40
40
F0
40
40
F0
40
40
40
ENDCHAR
STARTCHAR bullet
ENCODING -1
SWIDTH 500 0
DWIDTH 7 0
BBX 5 5 1 2
BITMAP
70
F8
F8
F8
70
ENDCHAR
STARTCHAR quotesinglbase
ENCODING -1
SWIDTH 222 0
DWIDTH 3 0
BBX 3 4 0 -2
BITMAP
60
40
40
80
ENDCHAR
STARTCHAR quotedblbase
ENCODING -1
SWIDTH 389 0
DWIDTH 5 0
BBX 5 4 0 -2
BITMAP
68
58
50
90
ENDCHAR
STARTCHAR quotedblright
ENCODING -1
SWIDTH 389 0
DWIDTH 5 0
BBX 5 4 0 6
BITMAP
68
58
50
90
ENDCHAR
STARTCHAR ellipsis
ENCODING -1
SWIDTH 1000 0
DWIDTH 14 0
BBX 10 2 2 0
BITMAP
0040
8C40
ENDCHAR
STARTCHAR perthousand
ENCODING -1
SWIDTH 1000 0
DWIDTH 14 0
BBX 14 10 0 0
BITMAP
7200
9200
9400
9400
7800
0800
1338
14A4
24A4
2338
ENDCHAR
STARTCHAR circumflex
ENCODING -1
SWIDTH 222 0
DWIDTH 3 0
BBX 3 2 0 8
BITMAP
60
A0
ENDCHAR
STARTCHAR tilde
ENCODING -1
SWIDTH 222 0
DWIDTH 3 0
BBX 5 2 -1 8
BITMAP
48
B8
ENDCHAR
STARTCHAR breve
ENCODING -1
SWIDTH 222 0
DWIDTH 3 0
BBX 4 2 0 8
BITMAP
90
E0
ENDCHAR
STARTCHAR dotaccent
ENCODING -1
SWIDTH 222 0
DWIDTH 3 0
BBX 1 2 1 8
BITMAP
80
80
ENDCHAR
STARTCHAR ring
ENCODING -1
SWIDTH 222 0
DWIDTH 3 0
BBX 3 3 0 8
BITMAP
40
A0
E0
ENDCHAR
STARTCHAR hungarumlaut
ENCODING -1
SWIDTH 222 0
DWIDTH 3 0
BBX 5 3 -1 7
BITMAP
68
58
90
ENDCHAR
STARTCHAR ogonek
ENCODING -1
SWIDTH 222 0
DWIDTH 3 0
BBX 3 3 0 -3
BITMAP
40
80
E0
ENDCHAR
STARTCHAR caron
ENCODING -1
SWIDTH 222 0
DWIDTH 3 0
BBX 3 2 0 8
BITMAP
A0
40
ENDCHAR
STARTCHAR emdash
ENCODING -1
SWIDTH 1000 0
DWIDTH 14 0
BBX 14 1 0 3
BITMAP
FFFC
ENDCHAR
STARTCHAR Lslash
ENCODING -1
SWIDTH 444 0
DWIDTH 6 0
BBX 6 10 0 0
BITMAP
40
40
40
40
70
C0
40
40
40
7C
ENDCHAR
STARTCHAR OE
ENCODING -1
SWIDTH 1000 0
DWIDTH 14 0
BBX 14 10 0 0
BITMAP
1EFC
6380
41F8
C080
C080
C080
4180
6180
3380
1EFC
ENDCHAR
STARTCHAR dotlessi
ENCODING -1
SWIDTH 222 0
DWIDTH 3 0
BBX 1 8 1 0
BITMAP
80
80
80
80
80
80
80
80
ENDCHAR
STARTCHAR lslash
ENCODING -1
SWIDTH 222 0
DWIDTH 3 0
BBX 3 10 0 0
BITMAP
40
40
40
60
C0
40
40
40
40
40
ENDCHAR
STARTCHAR oe
ENCODING -1
SWIDTH 944 0
DWIDTH 13 0
BBX 12 8 1 0
BITMAP
79C0
CE20
8430
87F0
8400
8400
CE00
79F0
ENDCHAR
STARTCHAR trademark
ENCODING -1
SWIDTH 990 0
DWIDTH 14 0
BBX 12 7 1 3
BITMAP
F230
2330
2330
2350
22D0
22D0
2290
ENDCHAR
STARTCHAR minus
ENCODING -1
SWIDTH 600 0
DWIDTH 8 0
BBX 7 1 1 3
BITMAP
FE
ENDCHAR
STARTCHAR Scaron
ENCODING -1
SWIDTH 611 0
DWIDTH 9 0
BBX 8 13 0 0
BITMAP
34
18
00
7E
40
40
7E
07
01
01
01
02
FC
ENDCHAR
STARTCHAR Ydieresis
ENCODING -1
SWIDTH 556 0
DWIDTH 8 0
BBX 7 13 0 0
BITMAP
24
24
00
C2
42
46
24
38
18
18
18
18
10
ENDCHAR
STARTCHAR Zcaron
ENCODING -1
SWIDTH 500 0
DWIDTH 7 0
BBX 7 13 0 0
BITMAP
2C
18
00
7C
04
04
0C
18
30
60
40
C0
FE
ENDCHAR
STARTCHAR scaron
ENCODING -1
SWIDTH 500 0
DWIDTH 7 0
BBX 7 11 0 0
BITMAP
28
10
00
7C
40
70
3C
06
06
04
FC
ENDCHAR
STARTCHAR zcaron
ENCODING -1
SWIDTH 444 0
DWIDTH 6 0
BBX 6 11 0 0
BITMAP
68
30
00
7C
0C
08
10
20
40
C0
FC
ENDCHAR
STARTCHAR Delta
ENCODING -1
SWIDTH 707 0
DWIDTH 10 0
BBX 9 10 0 0
BITMAP
0C00
0C00
1600
1200
3200
2100
2100
4080
4080
FF80
ENDCHAR
STARTCHAR Omega
ENCODING -1
SWIDTH 795 0
DWIDTH 11 0
BBX 9 10 1 0
BITMAP
1C00
6300
C180
8080
8080
8080
8080
4100
4100
E380
ENDCHAR
STARTCHAR pi
ENCODING -1
SWIDTH 621 0
DWIDTH 9 0
BBX 8 7 0 0
BITMAP
FF
22
22
22
22
62
42
ENDCHAR
STARTCHAR Euro
ENCODING -1
SWIDTH 611 0
DWIDTH 9 0
BBX 8 10 1 0
BITMAP
3E
60
40
FC
40
FC
60
20
18
0F
ENDCHAR
STARTCHAR estimated
ENCODING -1
SWIDTH 844 0
DWIDTH 12 0
BBX 11 10 0 0
BITMAP
0F00
30C0
4060
4060
C060
FF80
4000
4000
2040
1F80
ENDCHAR
STARTCHAR partialdiff
ENCODING -1
SWIDTH 592 0
DWIDTH 8 0
BBX 7 11 1 0
BITMAP
70
88
04
04
76
CE
84
84
84
88
70
ENDCHAR
STARTCHAR product
ENCODING -1
SWIDTH 758 0
DWIDTH 11 0
BBX 10 11 0 -2
BITMAP
FFC0
2180
2180
2180
2180
2180
2180
2180
2180
2180
2180
ENDCHAR
STARTCHAR summation
ENCODING -1
SWIDTH 601 0
DWIDTH 8 0
BBX 8 10 0 -1
BITMAP
FF
60
20
10
08
08
10
20
40
FF
ENDCHAR
STARTCHAR uni2219
ENCODING -1
SWIDTH 305 0
DWIDTH 4 0
BBX 2 1 1 3
BITMAP
C0
ENDCHAR
STARTCHAR radical
ENCODING -1
SWIDTH 612 0
DWIDTH 9 0
BBX 7 13 1 -2
BITMAP
02
02
02
02
04
04
C4
44
28
28
28
18
10
ENDCHAR
STARTCHAR infinity
ENCODING -1
SWIDTH 810 0
DWIDTH 11 0
BBX 10 4 1 1
BITMAP
7380
8C40
9480
6300
ENDCHAR
STARTCHAR integral
ENCODING -1
SWIDTH 373 0
DWIDTH 5 0
BBX 5 14 0 -2
BITMAP
18
20
20
20
20
20
20
20
20
20
20
20
20
C0
ENDCHAR
STARTCHAR approxequal
ENCODING -1
SWIDTH 605 0
DWIDTH 8 0
BBX 6 6 1 1
BITMAP
60
94
0C
60
94
0C
ENDCHAR
STARTCHAR notequal
ENCODING -1
SWIDTH 605 0
DWIDTH 8 0
BBX 7 7 1 0
BITMAP
08
FE
10
20
FE
40
40
ENDCHAR
STARTCHAR lessequal
ENCODING -1
SWIDTH 605 0
DWIDTH 8 0
BBX 7 8 1 0
BITMAP
04
38
C0
80
70
0C
02
FE
ENDCHAR
STARTCHAR greaterequal
ENCODING -1
SWIDTH 605 0
DWIDTH 8 0
BBX 7 8 1 0
BITMAP
C0
30
0C
06
18
60
80
FE
ENDCHAR
STARTCHAR lozenge
ENCODING -1
SWIDTH 613 0
DWIDTH 9 0
BBX 7 11 1 -1
BITMAP
10
28
48
44
84
82
84
44
68
30
10
ENDCHAR
STARTCHAR uni02C9
ENCODING -1
SWIDTH 222 0
DWIDTH 3 0
BBX 3 1 0 9
BITMAP
E0
ENDCHAR
STARTCHAR uni03A9
ENCODING -1
SWIDTH 795 0
DWIDTH 11 0
BBX 9 10 1 0
BITMAP
1C00
6300
C180
8080
8080
8080
8080
4100
4100
E380
ENDCHAR
STARTCHAR afii61289
ENCODING -1
SWIDTH 528 0
DWIDTH 7 0
BBX 7 11 0 0
BITMAP
18
24
24
24
28
28
30
20
E0
22
1C
ENDCHAR
STARTCHAR uni03BC
ENCODING -1
SWIDTH 556 0
DWIDTH 8 0
BBX 6 11 1 -3
BITMAP
84
84
84
84
84
8C
CC
F4
80
80
80
ENDCHAR
STARTCHAR uni2215
ENCODING -1
SWIDTH 167 0
DWIDTH 2 0
BBX 7 10 -2 0
BITMAP
02
04
08
08
10
20
20
40
80
80
ENDCHAR
ENDFONT
